# xmcd
#
# Track frame offsets:
#   150
#   18425
#   36238
#   53349
#   72600
#   90119
#   108130
#   126799
#   143834
#   160522
#   181847
#   201486
#   218789
#   235622
#   251609
#   267644
#   283581
#   301156
#   319081
#   336184
#
# Disc length: 4717 seconds
#
# Revision: 0
# Processed by: cddbd v1.5.1PL2 Copyright (c) Steve Scherf et al.
# Submitted via: GXTranscoder 2.0.1939
#
DISCID=15126b14
DTITLE=backstreet boys - never gone
DYEAR=2005
DGENRE=Pop
TTITLE0=incomplete
TTITLE1=just want you to know
TTITLE2=crawling back to you
TTITLE3=weird world
TTITLE4=i still
TTITLE5=poster girl
TTITLE6=lose it all
TTITLE7=climbing the wall
TTITLE8=my beautiful woman
TTITLE9=safest place to hide
TTITLE10=siberia
TTITLE11=never gone
TTITLE12=song for the unloved
TTITLE13=rush over me
TTITLE14=movin,on
TTITLE15=the call
TTITLE16=shape of my heart
TTITLE17=show me the meaning of being lonely
TTITLE18=as long as you love me
TTITLE19=larger than life
EXTD=
EXTT0=
EXTT1=
EXTT2=
EXTT3=
EXTT4=
EXTT5=
EXTT6=
EXTT7=
EXTT8=
EXTT9=
EXTT10=
EXTT11=
EXTT12=
EXTT13=
EXTT14=
EXTT15=
EXTT16=
EXTT17=
EXTT18=
EXTT19=
PLAYORDER=
